<svg width="12" height="12" viewBox="0 0 12 12" fill="none" xmlns="http://www.w3.org/2000/svg">
<path d="M5.12619 1.00962C5.51396 0.330125 6.48582 0.330126 6.87359 1.00962L11.4195 8.97534C11.8065 9.65343 11.3213 10.5 10.5458 10.5H1.45401C0.678452 10.5 0.193329 9.65343 0.580304 8.97534L5.12619 1.00962ZM5.44434 4.38889V5.5C5.44434 5.80683 5.69307 6.05556 5.99989 6.05556C6.30672 6.05556 6.55545 5.80683 6.55545 5.5V4.38889C6.55545 4.08206 6.30672 3.83333 5.99989 3.83333C5.69307 3.83333 5.44434 4.08206 5.44434 4.38889ZM5.99989 6.88889C5.53965 6.88889 5.16656 7.26199 5.16656 7.72222C5.16656 8.18246 5.53965 8.55556 5.99989 8.55556C6.46013 8.55556 6.83322 8.18246 6.83322 7.72222C6.83322 7.26199 6.46013 6.88889 5.99989 6.88889Z" fill="#B4610E"/>
</svg>
